<svg xmlns="http://www.w3.org/2000/svg" width="1200" height="360" viewBox="0 0 1200 360" role="img" aria-labelledby="title desc">
  <title id="title">twi banner</title>
  <desc id="desc">A banner for twi, a terminal Twitch chat client.</desc>
  <defs>
    <linearGradient id="panel" x1="0" y1="0" x2="1" y2="1">
      <stop offset="0" stop-color="#101827"/>
      <stop offset="0.58" stop-color="#182554"/>
      <stop offset="1" stop-color="#2b2272"/>
    </linearGradient>
    <linearGradient id="accent" x1="0" y1="0" x2="1" y2="0">
      <stop offset="0" stop-color="#22d3ee"/>
      <stop offset="1" stop-color="#8b5cf6"/>
    </linearGradient>
    <filter id="shadow" x="-5%" y="-10%" width="110%" height="120%">
      <feDropShadow dx="0" dy="18" stdDeviation="18" flood-color="#020617" flood-opacity="0.38"/>
    </filter>
  </defs>

  <rect width="1200" height="360" fill="#0b1018"/>
  <rect x="48" y="42" width="1104" height="276" rx="30" fill="url(#panel)" filter="url(#shadow)"/>
  <rect x="48" y="42" width="1104" height="276" rx="30" fill="none" stroke="#263454" stroke-width="1"/>

  <g transform="translate(92 76)">
    <rect width="470" height="208" rx="20" fill="#030712" stroke="#22d3ee" stroke-width="4"/>
    <circle cx="32" cy="31" r="7" fill="#fb7185"/>
    <circle cx="56" cy="31" r="7" fill="#facc15"/>
    <circle cx="80" cy="31" r="7" fill="#34d399"/>

    <text x="30" y="78" font-family="JetBrains Mono, Consolas, monospace" font-size="24" fill="#a7f3d0">streamer</text>
    <text x="166" y="78" font-family="JetBrains Mono, Consolas, monospace" font-size="24" fill="#f8fafc">chat with focus</text>

    <text x="30" y="124" font-family="JetBrains Mono, Consolas, monospace" font-size="24" fill="#f0abfc">modbot</text>
    <text x="166" y="124" font-family="JetBrains Mono, Consolas, monospace" font-size="24" fill="#f8fafc">reply /me resize</text>

    <text x="30" y="170" font-family="JetBrains Mono, Consolas, monospace" font-size="24" fill="#93c5fd">you</text>
    <text x="166" y="170" font-family="JetBrains Mono, Consolas, monospace" font-size="24" fill="#f8fafc">$ twi chat --mock</text>

    <rect x="30" y="186" width="410" height="12" rx="6" fill="#1e293b"/>
    <rect x="30" y="186" width="286" height="12" rx="6" fill="url(#accent)"/>
  </g>

  <g transform="translate(630 92)">
    <text x="0" y="72" font-family="Inter, Arial, sans-serif" font-size="76" font-weight="900" fill="#f8fafc">twi</text>
    <text x="2" y="120" font-family="Inter, Arial, sans-serif" font-size="32" font-weight="800" fill="#e0f2fe">Twitch chat for terminals</text>
    <text x="3" y="160" font-family="Inter, Arial, sans-serif" font-size="23" fill="#cbd5e1">Mock mode. Live IRC. Secrets redacted.</text>

    <rect x="0" y="196" width="138" height="40" rx="10" fill="#22d3ee"/>
    <text x="69" y="222" text-anchor="middle" font-family="Inter, Arial, sans-serif" font-size="18" font-weight="800" fill="#082f49">go run</text>

    <rect x="158" y="196" width="132" height="40" rx="10" fill="#a78bfa"/>
    <text x="224" y="222" text-anchor="middle" font-family="Inter, Arial, sans-serif" font-size="18" font-weight="800" fill="#1e1b4b">docker</text>

    <rect x="310" y="196" width="126" height="40" rx="10" fill="#34d399"/>
    <text x="373" y="222" text-anchor="middle" font-family="Inter, Arial, sans-serif" font-size="18" font-weight="800" fill="#052e16">doctor</text>
  </g>
</svg>
