<svg xmlns="http://www.w3.org/2000/svg" width="1200" height="360" viewBox="0 0 1200 360" role="img" aria-labelledby="title desc">
  <title id="title">twi banner</title>
  <desc id="desc">A banner for the twi terminal Twitch chat client.</desc>
  <defs>
    <linearGradient id="bg" x1="0" y1="0" x2="1" y2="1">
      <stop offset="0" stop-color="#111827"/>
      <stop offset="0.52" stop-color="#172554"/>
      <stop offset="1" stop-color="#312e81"/>
    </linearGradient>
  </defs>
  <rect width="1200" height="360" rx="32" fill="url(#bg)"/>
  <rect x="66" y="58" width="500" height="244" rx="22" fill="#020617" stroke="#22d3ee" stroke-width="4"/>
  <circle cx="100" cy="92" r="8" fill="#fb7185"/>
  <circle cx="126" cy="92" r="8" fill="#facc15"/>
  <circle cx="152" cy="92" r="8" fill="#34d399"/>
  <text x="98" y="143" font-family="JetBrains Mono, Consolas, monospace" font-size="27" fill="#a7f3d0">ariadne</text>
  <text x="224" y="143" font-family="JetBrains Mono, Consolas, monospace" font-size="27" fill="#f8fafc">chat, but with manners</text>
  <text x="98" y="190" font-family="JetBrains Mono, Consolas, monospace" font-size="27" fill="#f0abfc">modbot</text>
  <text x="224" y="190" font-family="JetBrains Mono, Consolas, monospace" font-size="27" fill="#f8fafc">reply, action, resize</text>
  <text x="98" y="237" font-family="JetBrains Mono, Consolas, monospace" font-size="27" fill="#93c5fd">you</text>
  <text x="224" y="237" font-family="JetBrains Mono, Consolas, monospace" font-size="27" fill="#f8fafc">twi chat --mock</text>
  <rect x="80" y="266" width="470" height="18" rx="9" fill="#1e293b"/>
  <rect x="80" y="266" width="312" height="18" rx="9" fill="#22d3ee"/>
  <text x="640" y="142" font-family="Inter, Arial, sans-serif" font-size="82" font-weight="900" fill="#f8fafc">twi</text>
  <text x="640" y="196" font-family="Inter, Arial, sans-serif" font-size="34" font-weight="700" fill="#e0f2fe">terminal Twitch chat, no browser circus</text>
  <text x="640" y="242" font-family="Inter, Arial, sans-serif" font-size="25" fill="#cbd5e1">Mock mode. Live IRC. Dockerfile. Secrets redacted.</text>
  <rect x="640" y="270" width="164" height="42" rx="10" fill="#22d3ee"/>
  <text x="722" y="299" text-anchor="middle" font-family="Inter, Arial, sans-serif" font-size="20" font-weight="800" fill="#082f49">go run</text>
  <rect x="824" y="270" width="154" height="42" rx="10" fill="#a78bfa"/>
  <text x="901" y="299" text-anchor="middle" font-family="Inter, Arial, sans-serif" font-size="20" font-weight="800" fill="#1e1b4b">docker</text>
  <rect x="998" y="270" width="116" height="42" rx="10" fill="#34d399"/>
  <text x="1056" y="299" text-anchor="middle" font-family="Inter, Arial, sans-serif" font-size="20" font-weight="800" fill="#052e16">doctor</text>
</svg>
